<svg xmlns="http://www.w3.org/2000/svg" xmlns:xlink="http://www.w3.org/1999/xlink" width="1080" zoomAndPan="magnify" viewBox="0 0 810 809.999993" height="1080" preserveAspectRatio="xMidYMid meet" version="1.0"><defs><clipPath id="d4236db4ab"><path d="M 405 0 C 181.324219 0 0 181.324219 0 405 C 0 628.675781 181.324219 810 405 810 C 628.675781 810 810 628.675781 810 405 C 810 181.324219 628.675781 0 405 0 " clip-rule="nonzero"/></clipPath><clipPath id="72d9e6d3ee"><path d="M 310 182 L 503 182 L 503 631.949219 L 310 631.949219 Z M 310 182 " clip-rule="nonzero"/></clipPath></defs><g clip-path="url(#d4236db4ab)"><rect x="-81" width="972" fill="#2b92e8" y="-80.999999" height="971.999992" fill-opacity="1"/></g><path fill="#ffffff" d="M 245.28125 568.042969 C 235.699219 568.042969 229.3125 564.847656 222.921875 558.457031 L 95.148438 430.636719 C 82.371094 417.855469 82.371094 398.683594 95.148438 385.902344 L 222.921875 258.085938 C 235.699219 245.304688 254.867188 245.304688 267.644531 258.085938 C 280.421875 270.867188 280.421875 290.039062 267.644531 302.820312 L 162.230469 408.269531 L 267.644531 513.71875 C 280.421875 526.5 280.421875 545.671875 267.644531 558.457031 C 261.253906 564.847656 254.867188 568.042969 245.28125 568.042969 Z M 245.28125 568.042969 " fill-opacity="1" fill-rule="nonzero"/><path fill="#ffffff" d="M 564.71875 568.042969 C 555.132812 568.042969 548.746094 564.847656 542.355469 558.457031 C 529.578125 545.671875 529.578125 526.5 542.355469 513.71875 L 647.769531 408.269531 L 542.355469 302.820312 C 529.578125 290.039062 529.578125 270.867188 542.355469 258.085938 C 555.132812 245.304688 574.300781 245.304688 587.078125 258.085938 L 714.851562 385.902344 C 727.628906 398.683594 727.628906 417.855469 714.851562 430.636719 L 587.078125 558.457031 C 580.6875 564.847656 574.300781 568.042969 564.71875 568.042969 Z M 564.71875 568.042969 " fill-opacity="1" fill-rule="nonzero"/><g clip-path="url(#72d9e6d3ee)"><path fill="#ffffff" d="M 341.113281 631.949219 C 337.917969 631.949219 334.722656 631.949219 331.53125 628.753906 C 315.558594 622.363281 305.976562 606.386719 312.363281 587.214844 L 440.136719 203.761719 C 446.527344 187.785156 462.5 178.199219 481.664062 184.589844 C 497.636719 190.980469 507.21875 206.957031 500.832031 226.132812 L 373.054688 609.582031 C 366.667969 622.363281 353.890625 631.949219 341.113281 631.949219 Z M 341.113281 631.949219 " fill-opacity="1" fill-rule="nonzero"/></g></svg>